<?xml version="1.0" standalone="no"?>
<!DOCTYPE svg PUBLIC "-//W3C//DTD SVG 20010904//EN"
 "http://www.w3.org/TR/2001/REC-SVG-20010904/DTD/svg10.dtd">
<svg version="1.0" xmlns="http://www.w3.org/2000/svg"
 width="816.000000pt" height="816.000000pt" viewBox="0 0 816.000000 816.000000"
 preserveAspectRatio="xMidYMid meet">
<metadata>
Created by potrace 1.11, written by Peter Selinger 2001-2013
</metadata>
<g transform="translate(0.000000,816.000000) scale(0.100000,-0.100000)"
fill="#000000" stroke="none">
<path d="M4128 8125 c-2 -2 -80 -7 -173 -10 -94 -3 -183 -8 -200 -10 -16 -2
-57 -7 -90 -11 -74 -7 -100 -11 -123 -18 -10 -4 -36 -8 -58 -11 -21 -2 -79
-13 -129 -25 -49 -12 -100 -23 -111 -26 -26 -5 -152 -42 -174 -51 -8 -4 -17
-7 -20 -8 -28 -7 -127 -40 -135 -45 -5 -4 -32 -15 -60 -25 -97 -35 -327 -144
-333 -157 -2 -5 -12 -8 -22 -8 -10 0 -20 -3 -22 -7 -1 -5 -19 -17 -38 -27
-162 -89 -385 -247 -549 -391 -88 -77 -351 -347 -351 -361 0 -2 -8 -12 -17
-22 -10 -10 -31 -35 -48 -56 -16 -21 -36 -45 -43 -52 -6 -7 -12 -16 -12 -21 0
-4 -10 -19 -23 -33 -84 -92 -279 -435 -370 -650 -67 -158 -154 -418 -173 -520
-3 -14 -7 -33 -10 -42 -3 -9 -7 -27 -9 -40 -3 -13 -10 -47 -16 -76 -6 -29 -12
-65 -14 -80 -2 -15 -6 -40 -9 -57 -5 -28 -12 -85 -22 -180 -7 -76 -15 -300
-14 -440 1 -77 1 -147 1 -155 0 -8 0 -100 0 -205 1 -104 1 -197 1 -205 -1 -8
-1 -152 0 -320 0 -168 0 -312 0 -320 -1 -8 -1 -132 -1 -275 0 -143 0 -267 0
-275 0 -8 0 -80 0 -160 0 -80 0 -152 0 -160 0 -8 0 -64 0 -125 1 -60 1 -117 0
-125 0 -8 0 -116 0 -240 1 -124 1 -232 0 -240 0 -8 0 -116 0 -240 1 -124 1
-232 1 -240 -1 -8 -1 -96 -1 -195 0 -99 0 -187 0 -195 0 -8 0 -80 0 -160 0
-80 0 -152 0 -160 0 -8 0 -100 1 -205 0 -104 -1 -206 -2 -225 -1 -19 -2 -39
-2 -45 1 -5 1 -43 2 -82 1 -68 3 -73 23 -74 12 -1 26 0 32 1 5 1 17 2 25 2 35
-1 386 -1 400 -1 8 0 98 0 200 0 102 0 192 0 200 1 8 0 44 0 80 -1 36 0 72 0
80 0 8 0 62 0 120 0 58 0 112 0 120 0 8 0 80 0 160 0 80 0 152 0 160 0 8 0 80
0 160 0 80 0 152 0 160 0 8 0 80 0 160 0 80 0 152 0 160 0 8 0 62 0 120 0 58
0 112 0 120 0 8 1 44 1 80 0 36 0 72 0 80 0 8 0 98 0 200 0 102 0 192 0 200 0
8 0 98 0 200 0 102 0 192 0 200 1 8 0 44 0 80 -1 36 0 72 0 80 0 8 1 62 1 120
0 58 0 112 0 120 0 8 0 80 0 160 0 80 0 152 0 160 0 8 0 80 0 160 0 80 0 152
0 160 0 8 0 80 0 160 0 80 0 152 0 160 0 8 0 62 0 120 0 58 0 112 0 120 0 8 1
44 1 80 0 36 0 72 0 80 0 8 0 98 0 200 0 102 0 192 0 200 0 8 0 98 0 200 0
102 0 192 0 200 1 8 0 44 0 80 -1 36 0 72 0 80 0 28 2 284 0 298 -2 4 -1 46
-1 95 0 l87 1 1 273 c0 149 0 279 1 287 0 8 0 80 -1 160 0 80 0 152 0 160 1 8
1 80 0 160 0 80 0 152 0 160 1 8 1 80 0 160 0 80 0 152 0 160 1 8 1 80 0 160
0 80 0 152 0 160 1 8 1 80 0 160 0 80 0 152 0 160 1 8 1 80 0 160 0 80 0 152
0 160 1 8 0 80 0 160 -1 179 -3 560 -2 580 0 8 0 224 0 480 0 256 0 472 0 480
0 8 0 155 0 325 0 458 -7 582 -44 795 -4 19 -8 47 -10 62 -2 15 -6 35 -9 45
-3 10 -7 30 -10 45 -3 15 -17 74 -31 130 -15 57 -28 108 -30 113 -2 12 -6 24
-29 90 -10 28 -19 55 -20 60 -2 15 -34 96 -78 202 -6 15 -12 30 -13 33 -10 42
-201 402 -217 408 -4 2 -8 8 -8 14 0 8 -52 92 -82 133 -182 248 -239 315 -393
470 -108 108 -170 165 -250 228 -33 27 -67 54 -75 60 -8 7 -31 23 -50 37 -19
13 -37 27 -40 30 -7 9 -197 133 -235 154 -16 9 -46 26 -65 38 -93 56 -301 154
-429 203 -48 18 -95 36 -106 40 -11 4 -24 9 -30 10 -5 1 -30 9 -55 18 -44 15
-222 65 -258 72 -72 15 -174 34 -207 40 -69 12 -78 13 -140 20 -33 3 -73 8
-90 10 -16 3 -78 7 -138 9 -59 3 -111 7 -116 10 -4 3 -10 4 -13 1z m252 -419
c25 -3 61 -9 80 -12 19 -3 49 -7 65 -9 70 -9 112 -16 145 -25 19 -5 46 -11 60
-14 14 -3 59 -14 100 -25 41 -11 86 -23 100 -26 14 -4 34 -10 45 -15 11 -5 47
-17 80 -28 76 -25 270 -108 301 -129 13 -8 24 -12 24 -9 0 4 17 -5 37 -19 21
-14 41 -25 45 -25 5 0 168 -93 187 -107 9 -7 -7 -11 -59 -18 -53 -6 -129 -18
-200 -31 -19 -4 -44 -8 -55 -9 -11 -2 -20 -4 -20 -5 0 -1 -11 -3 -24 -6 -61
-11 -189 -47 -283 -80 -57 -19 -107 -37 -113 -38 -5 -1 -27 -10 -49 -19 -21
-9 -41 -17 -43 -17 -10 0 -271 -134 -297 -152 -6 -4 -54 -36 -106 -70 -52 -34
-97 -64 -100 -67 -3 -4 -39 -33 -80 -66 -41 -32 -125 -109 -186 -170 -106
-106 -129 -131 -202 -223 -19 -22 -41 -50 -50 -61 -10 -11 -27 -35 -40 -53
-13 -18 -43 -61 -67 -95 -25 -35 -45 -67 -45 -73 0 -5 -3 -10 -7 -10 -5 0 -13
-10 -19 -23 -6 -12 -29 -51 -51 -87 -77 -125 -204 -368 -280 -535 -17 -38 -47
-104 -66 -145 -56 -121 -167 -386 -167 -399 0 -6 -4 -11 -10 -11 -5 0 -10 -6
-10 -13 0 -12 -41 -110 -97 -237 -9 -19 -17 -37 -17 -40 -1 -3 -10 -23 -20
-45 -10 -22 -22 -49 -27 -60 -44 -105 -228 -467 -274 -540 -59 -94 -166 -253
-182 -270 -10 -11 -31 -38 -48 -60 -50 -68 -227 -237 -311 -297 -79 -56 -254
-161 -254 -152 0 2 -17 -4 -38 -15 -83 -42 -258 -94 -392 -116 -25 -4 -52 -9
-60 -10 -8 -2 -43 -6 -78 -10 l-62 -7 -1 109 c0 59 0 115 0 123 0 8 0 80 0
160 0 80 0 152 0 160 0 8 0 80 0 160 0 80 0 152 0 160 0 8 0 80 0 160 0 80 0
152 0 160 -4 115 6 882 11 930 5 36 11 90 14 120 7 60 13 98 23 145 3 17 7 39
9 50 1 11 9 46 18 78 8 33 15 62 14 65 -1 4 1 14 5 22 3 8 13 42 22 75 23 85
95 288 106 300 5 5 9 15 9 23 0 19 137 291 190 377 41 68 139 215 150 225 3 3
18 23 35 45 16 22 31 42 34 45 4 3 24 28 46 55 67 84 179 199 310 319 126 116
377 290 550 381 50 27 96 52 103 58 6 5 12 7 12 4 0 -4 21 4 48 17 77 38 111
52 222 91 58 21 112 40 120 43 8 3 20 6 25 8 6 1 45 12 87 24 43 11 85 23 95
25 10 1 52 10 93 18 93 19 143 27 300 46 70 8 497 6 570 -3z m1804 -886 c93
-97 175 -194 248 -293 20 -29 42 -57 48 -64 5 -7 10 -15 10 -19 0 -4 8 -17 18
-28 49 -57 218 -370 272 -506 30 -74 81 -218 90 -255 5 -16 18 -62 29 -102 19
-66 67 -298 70 -333 0 -16 8 -71 17 -135 4 -22 8 -279 11 -570 l4 -530 -28 -1
c-34 -1 -175 -14 -211 -20 -15 -2 -43 -7 -62 -10 -19 -3 -46 -8 -60 -10 -79
-14 -283 -69 -312 -85 -10 -5 -23 -9 -28 -9 -6 0 -30 -9 -53 -19 -23 -11 -45
-20 -49 -20 -9 -2 -174 -86 -203 -104 -86 -53 -150 -98 -209 -146 -215 -173
-421 -440 -562 -726 -27 -55 -52 -102 -55 -105 -3 -3 -12 -23 -21 -45 -14 -35
-51 -120 -78 -180 -5 -11 -19 -45 -30 -75 -11 -30 -25 -64 -30 -75 -22 -46
-100 -258 -100 -271 0 -8 -4 -14 -9 -14 -5 0 -12 -15 -15 -34 -4 -19 -13 -47
-20 -62 -20 -41 -37 -83 -91 -219 -46 -114 -191 -424 -204 -435 -3 -3 -15 -21
-25 -40 -22 -40 -107 -172 -116 -180 -3 -3 -21 -25 -40 -50 -81 -104 -272
-290 -299 -290 -4 0 -16 -8 -27 -18 -26 -25 -165 -105 -181 -105 -7 0 -13 -4
-13 -7 0 -7 -144 -68 -173 -75 -7 -1 -19 -5 -27 -8 -28 -10 -155 -46 -185 -51
-16 -3 -46 -8 -65 -11 -19 -3 -42 -8 -50 -10 -8 -2 -37 -6 -65 -10 -27 -3 -81
-9 -120 -14 -38 -5 -510 -9 -1048 -9 l-977 -1 0 1044 0 1045 33 1 c17 0 39 2
47 3 14 3 70 10 165 22 52 7 233 50 310 73 213 67 466 200 615 323 19 16 46
38 60 49 41 34 172 162 224 220 65 73 204 259 252 339 21 36 41 67 45 70 10 9
109 189 109 199 0 5 4 11 9 13 5 2 11 10 13 18 2 8 5 17 8 20 10 9 110 219
110 229 0 6 4 11 10 11 5 0 9 4 7 8 -1 4 6 24 15 43 17 34 44 95 80 179 27 63
42 98 67 154 12 27 31 71 42 99 11 28 28 69 38 91 11 23 38 86 61 141 85 201
170 387 248 540 30 61 62 125 71 143 8 17 19 32 23 32 4 0 8 6 8 12 0 38 256
422 356 533 104 116 214 223 309 297 33 27 65 51 70 56 49 39 144 96 240 146
33 17 62 33 65 36 6 6 110 51 125 54 6 1 17 6 25 11 8 5 17 10 20 10 10 1 86
27 105 35 20 9 194 57 238 66 19 4 154 27 230 40 34 5 118 13 222 20 44 3 81
7 82 7 1 1 49 2 108 2 l106 0 53 -55z m813 -4808 l2 -1571 -1332 0 c-1164 0
-1329 2 -1312 15 189 136 405 390 557 654 30 53 138 268 162 323 9 20 24 54
33 75 10 20 18 39 18 42 2 5 12 31 40 95 9 22 18 45 19 50 2 6 8 21 13 35 36
85 128 326 150 390 8 25 19 49 24 55 5 5 9 15 9 22 0 7 8 32 19 56 10 23 45
103 77 177 62 143 154 327 185 372 11 14 19 29 19 33 0 4 8 17 18 30 9 12 24
33 32 45 93 138 229 283 355 378 163 123 446 237 668 269 45 6 72 11 72 13 0
1 29 3 64 6 35 2 66 6 68 8 3 2 12 3 21 2 16 -3 17 -111 19 -1574z"/>
</g>
</svg>
